<mxfile host="app.diagrams.net" agent="Mozilla/5.0 (Windows NT 10.0; Win64; x64) AppleWebKit/537.36 (KHTML, like Gecko) Chrome/139.0.0.0 Safari/537.36" version="28.1.1">
  <diagram name="Page-1" id="YI_SgMZxXOEvUpgQSf75">
    <mxGraphModel dx="2850" dy="1905" grid="1" gridSize="10" guides="1" tooltips="1" connect="1" arrows="1" fold="1" page="1" pageScale="1" pageWidth="850" pageHeight="1100" math="0" shadow="0">
      <root>
        <mxCell id="0" />
        <mxCell id="1" parent="0" />
        <mxCell id="a5aYYJkh6RYxDf2mJQ3F-2" value="VPC" style="points=[[0,0],[0.25,0],[0.5,0],[0.75,0],[1,0],[1,0.25],[1,0.5],[1,0.75],[1,1],[0.75,1],[0.5,1],[0.25,1],[0,1],[0,0.75],[0,0.5],[0,0.25]];outlineConnect=0;gradientColor=none;html=1;whiteSpace=wrap;fontSize=12;fontStyle=0;container=1;pointerEvents=0;collapsible=0;recursiveResize=0;shape=mxgraph.aws4.group;grIcon=mxgraph.aws4.group_vpc2;strokeColor=#8C4FFF;fillColor=none;verticalAlign=top;align=left;spacingLeft=30;fontColor=#AAB7B8;dashed=0;" vertex="1" parent="1">
          <mxGeometry x="-290" y="-300" width="820" height="600" as="geometry" />
        </mxCell>
        <mxCell id="a5aYYJkh6RYxDf2mJQ3F-3" value="Public subnet" style="points=[[0,0],[0.25,0],[0.5,0],[0.75,0],[1,0],[1,0.25],[1,0.5],[1,0.75],[1,1],[0.75,1],[0.5,1],[0.25,1],[0,1],[0,0.75],[0,0.5],[0,0.25]];outlineConnect=0;gradientColor=none;html=1;whiteSpace=wrap;fontSize=12;fontStyle=0;container=1;pointerEvents=0;collapsible=0;recursiveResize=0;shape=mxgraph.aws4.group;grIcon=mxgraph.aws4.group_security_group;grStroke=0;strokeColor=#7AA116;fillColor=#F2F6E8;verticalAlign=top;align=left;spacingLeft=30;fontColor=#248814;dashed=0;" vertex="1" parent="a5aYYJkh6RYxDf2mJQ3F-2">
          <mxGeometry x="30" y="30" width="680" height="550" as="geometry" />
        </mxCell>
        <mxCell id="a5aYYJkh6RYxDf2mJQ3F-100" style="edgeStyle=orthogonalEdgeStyle;rounded=0;orthogonalLoop=1;jettySize=auto;html=1;" edge="1" parent="a5aYYJkh6RYxDf2mJQ3F-3" source="a5aYYJkh6RYxDf2mJQ3F-16" target="a5aYYJkh6RYxDf2mJQ3F-68">
          <mxGeometry relative="1" as="geometry" />
        </mxCell>
        <mxCell id="a5aYYJkh6RYxDf2mJQ3F-16" value="" style="sketch=0;points=[[0,0,0],[0.25,0,0],[0.5,0,0],[0.75,0,0],[1,0,0],[0,1,0],[0.25,1,0],[0.5,1,0],[0.75,1,0],[1,1,0],[0,0.25,0],[0,0.5,0],[0,0.75,0],[1,0.25,0],[1,0.5,0],[1,0.75,0]];outlineConnect=0;fontColor=#232F3E;fillColor=#ED7100;strokeColor=#ffffff;dashed=0;verticalLabelPosition=bottom;verticalAlign=top;align=center;html=1;fontSize=12;fontStyle=0;aspect=fixed;shape=mxgraph.aws4.resourceIcon;resIcon=mxgraph.aws4.ec2;" vertex="1" parent="a5aYYJkh6RYxDf2mJQ3F-3">
          <mxGeometry x="152" y="394" width="68" height="68" as="geometry" />
        </mxCell>
        <mxCell id="a5aYYJkh6RYxDf2mJQ3F-17" value="" style="sketch=0;points=[[0,0,0],[0.25,0,0],[0.5,0,0],[0.75,0,0],[1,0,0],[0,1,0],[0.25,1,0],[0.5,1,0],[0.75,1,0],[1,1,0],[0,0.25,0],[0,0.5,0],[0,0.75,0],[1,0.25,0],[1,0.5,0],[1,0.75,0]];outlineConnect=0;fontColor=#232F3E;fillColor=#ED7100;strokeColor=#ffffff;dashed=0;verticalLabelPosition=bottom;verticalAlign=top;align=center;html=1;fontSize=12;fontStyle=0;aspect=fixed;shape=mxgraph.aws4.resourceIcon;resIcon=mxgraph.aws4.ec2;" vertex="1" parent="a5aYYJkh6RYxDf2mJQ3F-3">
          <mxGeometry x="530" y="326" width="68" height="68" as="geometry" />
        </mxCell>
        <mxCell id="a5aYYJkh6RYxDf2mJQ3F-105" style="edgeStyle=orthogonalEdgeStyle;rounded=0;orthogonalLoop=1;jettySize=auto;html=1;" edge="1" parent="a5aYYJkh6RYxDf2mJQ3F-3" source="a5aYYJkh6RYxDf2mJQ3F-19" target="a5aYYJkh6RYxDf2mJQ3F-20">
          <mxGeometry relative="1" as="geometry" />
        </mxCell>
        <mxCell id="a5aYYJkh6RYxDf2mJQ3F-19" value="" style="sketch=0;points=[[0,0,0],[0.25,0,0],[0.5,0,0],[0.75,0,0],[1,0,0],[0,1,0],[0.25,1,0],[0.5,1,0],[0.75,1,0],[1,1,0],[0,0.25,0],[0,0.5,0],[0,0.75,0],[1,0.25,0],[1,0.5,0],[1,0.75,0]];outlineConnect=0;fontColor=#232F3E;fillColor=#ED7100;strokeColor=#ffffff;dashed=0;verticalLabelPosition=bottom;verticalAlign=top;align=center;html=1;fontSize=12;fontStyle=0;aspect=fixed;shape=mxgraph.aws4.resourceIcon;resIcon=mxgraph.aws4.ec2;" vertex="1" parent="a5aYYJkh6RYxDf2mJQ3F-3">
          <mxGeometry x="245.5" y="240" width="69" height="69" as="geometry" />
        </mxCell>
        <mxCell id="a5aYYJkh6RYxDf2mJQ3F-106" style="edgeStyle=orthogonalEdgeStyle;rounded=0;orthogonalLoop=1;jettySize=auto;html=1;" edge="1" parent="a5aYYJkh6RYxDf2mJQ3F-3" source="a5aYYJkh6RYxDf2mJQ3F-18" target="a5aYYJkh6RYxDf2mJQ3F-19">
          <mxGeometry relative="1" as="geometry" />
        </mxCell>
        <mxCell id="a5aYYJkh6RYxDf2mJQ3F-18" value="" style="sketch=0;points=[[0,0,0],[0.25,0,0],[0.5,0,0],[0.75,0,0],[1,0,0],[0,1,0],[0.25,1,0],[0.5,1,0],[0.75,1,0],[1,1,0],[0,0.25,0],[0,0.5,0],[0,0.75,0],[1,0.25,0],[1,0.5,0],[1,0.75,0]];outlineConnect=0;fontColor=#232F3E;fillColor=#ED7100;strokeColor=#ffffff;dashed=0;verticalLabelPosition=bottom;verticalAlign=top;align=center;html=1;fontSize=12;fontStyle=0;aspect=fixed;shape=mxgraph.aws4.resourceIcon;resIcon=mxgraph.aws4.ec2;" vertex="1" parent="a5aYYJkh6RYxDf2mJQ3F-3">
          <mxGeometry x="70" y="240" width="70" height="70" as="geometry" />
        </mxCell>
        <mxCell id="a5aYYJkh6RYxDf2mJQ3F-20" value="" style="sketch=0;points=[[0,0,0],[0.25,0,0],[0.5,0,0],[0.75,0,0],[1,0,0],[0,1,0],[0.25,1,0],[0.5,1,0],[0.75,1,0],[1,1,0],[0,0.25,0],[0,0.5,0],[0,0.75,0],[1,0.25,0],[1,0.5,0],[1,0.75,0]];outlineConnect=0;fontColor=#232F3E;fillColor=#ED7100;strokeColor=#ffffff;dashed=0;verticalLabelPosition=bottom;verticalAlign=top;align=center;html=1;fontSize=12;fontStyle=0;aspect=fixed;shape=mxgraph.aws4.resourceIcon;resIcon=mxgraph.aws4.ec2;" vertex="1" parent="a5aYYJkh6RYxDf2mJQ3F-3">
          <mxGeometry x="380" y="330" width="60" height="60" as="geometry" />
        </mxCell>
        <mxCell id="a5aYYJkh6RYxDf2mJQ3F-46" value="" style="sketch=0;points=[[0,0,0],[0.25,0,0],[0.5,0,0],[0.75,0,0],[1,0,0],[0,1,0],[0.25,1,0],[0.5,1,0],[0.75,1,0],[1,1,0],[0,0.25,0],[0,0.5,0],[0,0.75,0],[1,0.25,0],[1,0.5,0],[1,0.75,0]];outlineConnect=0;fontColor=#232F3E;fillColor=#8C4FFF;strokeColor=#ffffff;dashed=0;verticalLabelPosition=bottom;verticalAlign=top;align=center;html=1;fontSize=12;fontStyle=0;aspect=fixed;shape=mxgraph.aws4.resourceIcon;resIcon=mxgraph.aws4.elastic_load_balancing;" vertex="1" parent="a5aYYJkh6RYxDf2mJQ3F-3">
          <mxGeometry x="160" y="60" width="60" height="60" as="geometry" />
        </mxCell>
        <mxCell id="a5aYYJkh6RYxDf2mJQ3F-51" value="" style="edgeStyle=orthogonalEdgeStyle;rounded=0;orthogonalLoop=1;jettySize=auto;html=1;" edge="1" parent="a5aYYJkh6RYxDf2mJQ3F-3" source="a5aYYJkh6RYxDf2mJQ3F-49" target="a5aYYJkh6RYxDf2mJQ3F-46">
          <mxGeometry relative="1" as="geometry">
            <Array as="points">
              <mxPoint x="190" y="165" />
            </Array>
          </mxGeometry>
        </mxCell>
        <mxCell id="a5aYYJkh6RYxDf2mJQ3F-61" value="" style="edgeStyle=orthogonalEdgeStyle;rounded=0;orthogonalLoop=1;jettySize=auto;html=1;" edge="1" parent="a5aYYJkh6RYxDf2mJQ3F-3" source="a5aYYJkh6RYxDf2mJQ3F-49" target="a5aYYJkh6RYxDf2mJQ3F-18">
          <mxGeometry relative="1" as="geometry" />
        </mxCell>
        <mxCell id="a5aYYJkh6RYxDf2mJQ3F-49" value="etl-core-tg" style="text;html=1;align=center;verticalAlign=middle;resizable=0;points=[];autosize=1;strokeColor=none;fillColor=none;" vertex="1" parent="a5aYYJkh6RYxDf2mJQ3F-3">
          <mxGeometry x="65" y="150" width="80" height="30" as="geometry" />
        </mxCell>
        <mxCell id="a5aYYJkh6RYxDf2mJQ3F-62" value="" style="edgeStyle=orthogonalEdgeStyle;rounded=0;orthogonalLoop=1;jettySize=auto;html=1;" edge="1" parent="a5aYYJkh6RYxDf2mJQ3F-3" source="a5aYYJkh6RYxDf2mJQ3F-50" target="a5aYYJkh6RYxDf2mJQ3F-19">
          <mxGeometry relative="1" as="geometry" />
        </mxCell>
        <mxCell id="a5aYYJkh6RYxDf2mJQ3F-81" style="edgeStyle=orthogonalEdgeStyle;rounded=0;orthogonalLoop=1;jettySize=auto;html=1;" edge="1" parent="a5aYYJkh6RYxDf2mJQ3F-3" source="a5aYYJkh6RYxDf2mJQ3F-50">
          <mxGeometry relative="1" as="geometry">
            <mxPoint x="190" y="120" as="targetPoint" />
          </mxGeometry>
        </mxCell>
        <mxCell id="a5aYYJkh6RYxDf2mJQ3F-50" value="etl-core-tg-new" style="text;html=1;align=center;verticalAlign=middle;resizable=0;points=[];autosize=1;strokeColor=none;fillColor=none;" vertex="1" parent="a5aYYJkh6RYxDf2mJQ3F-3">
          <mxGeometry x="230" y="150" width="100" height="30" as="geometry" />
        </mxCell>
        <mxCell id="a5aYYJkh6RYxDf2mJQ3F-67" value="app-t4g-2&lt;br&gt;core backend" style="text;html=1;align=center;verticalAlign=middle;resizable=0;points=[];autosize=1;strokeColor=none;fillColor=none;" vertex="1" parent="a5aYYJkh6RYxDf2mJQ3F-3">
          <mxGeometry x="50" y="309" width="100" height="40" as="geometry" />
        </mxCell>
        <mxCell id="a5aYYJkh6RYxDf2mJQ3F-68" value="app-t4g&lt;div&gt;core backend&lt;/div&gt;" style="text;html=1;align=center;verticalAlign=middle;resizable=0;points=[];autosize=1;strokeColor=none;fillColor=none;" vertex="1" parent="a5aYYJkh6RYxDf2mJQ3F-3">
          <mxGeometry x="225.5" y="310" width="100" height="40" as="geometry" />
        </mxCell>
        <mxCell id="a5aYYJkh6RYxDf2mJQ3F-71" value="Hyperminds-pg&lt;br&gt;Database" style="text;html=1;align=center;verticalAlign=middle;resizable=0;points=[];autosize=1;strokeColor=none;fillColor=none;" vertex="1" parent="a5aYYJkh6RYxDf2mJQ3F-3">
          <mxGeometry x="360" y="385" width="100" height="40" as="geometry" />
        </mxCell>
        <mxCell id="a5aYYJkh6RYxDf2mJQ3F-102" style="edgeStyle=orthogonalEdgeStyle;rounded=0;orthogonalLoop=1;jettySize=auto;html=1;" edge="1" parent="a5aYYJkh6RYxDf2mJQ3F-3" source="a5aYYJkh6RYxDf2mJQ3F-70" target="a5aYYJkh6RYxDf2mJQ3F-71">
          <mxGeometry relative="1" as="geometry">
            <Array as="points">
              <mxPoint x="410" y="470" />
            </Array>
          </mxGeometry>
        </mxCell>
        <mxCell id="a5aYYJkh6RYxDf2mJQ3F-117" style="edgeStyle=orthogonalEdgeStyle;rounded=0;orthogonalLoop=1;jettySize=auto;html=1;" edge="1" parent="a5aYYJkh6RYxDf2mJQ3F-3" source="a5aYYJkh6RYxDf2mJQ3F-70">
          <mxGeometry relative="1" as="geometry">
            <mxPoint x="-260" y="473" as="targetPoint" />
            <Array as="points">
              <mxPoint x="-260" y="470" />
            </Array>
          </mxGeometry>
        </mxCell>
        <mxCell id="a5aYYJkh6RYxDf2mJQ3F-70" value="app-orch&lt;br&gt;orch backend" style="text;html=1;align=center;verticalAlign=middle;resizable=0;points=[];autosize=1;strokeColor=none;fillColor=none;" vertex="1" parent="a5aYYJkh6RYxDf2mJQ3F-3">
          <mxGeometry x="136" y="468" width="100" height="40" as="geometry" />
        </mxCell>
        <mxCell id="a5aYYJkh6RYxDf2mJQ3F-72" value="Monitoring-ec2" style="text;html=1;align=center;verticalAlign=middle;resizable=0;points=[];autosize=1;strokeColor=none;fillColor=none;" vertex="1" parent="a5aYYJkh6RYxDf2mJQ3F-3">
          <mxGeometry x="514" y="390" width="100" height="30" as="geometry" />
        </mxCell>
        <mxCell id="a5aYYJkh6RYxDf2mJQ3F-76" value="etl-core-alb" style="text;html=1;align=center;verticalAlign=middle;resizable=0;points=[];autosize=1;strokeColor=none;fillColor=none;" vertex="1" parent="a5aYYJkh6RYxDf2mJQ3F-3">
          <mxGeometry x="150" y="30" width="80" height="30" as="geometry" />
        </mxCell>
        <mxCell id="a5aYYJkh6RYxDf2mJQ3F-101" style="edgeStyle=orthogonalEdgeStyle;rounded=0;orthogonalLoop=1;jettySize=auto;html=1;entryX=0.471;entryY=1.058;entryDx=0;entryDy=0;entryPerimeter=0;" edge="1" parent="a5aYYJkh6RYxDf2mJQ3F-3" source="a5aYYJkh6RYxDf2mJQ3F-16" target="a5aYYJkh6RYxDf2mJQ3F-67">
          <mxGeometry relative="1" as="geometry">
            <mxPoint x="100" y="350" as="targetPoint" />
          </mxGeometry>
        </mxCell>
        <mxCell id="a5aYYJkh6RYxDf2mJQ3F-12" value="Text" style="text;html=1;align=center;verticalAlign=middle;resizable=0;points=[];autosize=1;strokeColor=none;fillColor=none;" vertex="1" parent="1">
          <mxGeometry x="425" y="535" width="50" height="30" as="geometry" />
        </mxCell>
        <mxCell id="a5aYYJkh6RYxDf2mJQ3F-75" value="" style="edgeStyle=orthogonalEdgeStyle;rounded=0;orthogonalLoop=1;jettySize=auto;html=1;entryX=0.5;entryY=0.333;entryDx=0;entryDy=0;entryPerimeter=0;" edge="1" parent="1" source="a5aYYJkh6RYxDf2mJQ3F-73" target="a5aYYJkh6RYxDf2mJQ3F-76">
          <mxGeometry relative="1" as="geometry">
            <mxPoint x="-105" y="-270" as="targetPoint" />
          </mxGeometry>
        </mxCell>
        <mxCell id="a5aYYJkh6RYxDf2mJQ3F-73" value="FE Cloudfront" style="text;html=1;align=center;verticalAlign=middle;resizable=0;points=[];autosize=1;strokeColor=none;fillColor=none;" vertex="1" parent="1">
          <mxGeometry x="-120" y="-380" width="100" height="30" as="geometry" />
        </mxCell>
        <mxCell id="a5aYYJkh6RYxDf2mJQ3F-74" value="" style="sketch=0;points=[[0,0,0],[0.25,0,0],[0.5,0,0],[0.75,0,0],[1,0,0],[0,1,0],[0.25,1,0],[0.5,1,0],[0.75,1,0],[1,1,0],[0,0.25,0],[0,0.5,0],[0,0.75,0],[1,0.25,0],[1,0.5,0],[1,0.75,0]];outlineConnect=0;fontColor=#232F3E;fillColor=#8C4FFF;strokeColor=#ffffff;dashed=0;verticalLabelPosition=bottom;verticalAlign=top;align=center;html=1;fontSize=12;fontStyle=0;aspect=fixed;shape=mxgraph.aws4.resourceIcon;resIcon=mxgraph.aws4.cloudfront;" vertex="1" parent="1">
          <mxGeometry x="-105" y="-450" width="70" height="70" as="geometry" />
        </mxCell>
        <mxCell id="a5aYYJkh6RYxDf2mJQ3F-85" value="" style="sketch=0;points=[[0,0,0],[0.25,0,0],[0.5,0,0],[0.75,0,0],[1,0,0],[0,1,0],[0.25,1,0],[0.5,1,0],[0.75,1,0],[1,1,0],[0,0.25,0],[0,0.5,0],[0,0.75,0],[1,0.25,0],[1,0.5,0],[1,0.75,0]];outlineConnect=0;fontColor=#232F3E;fillColor=#7AA116;strokeColor=#ffffff;dashed=0;verticalLabelPosition=bottom;verticalAlign=top;align=center;html=1;fontSize=12;fontStyle=0;aspect=fixed;shape=mxgraph.aws4.resourceIcon;resIcon=mxgraph.aws4.s3;" vertex="1" parent="1">
          <mxGeometry x="110" y="-448" width="68" height="68" as="geometry" />
        </mxCell>
        <mxCell id="a5aYYJkh6RYxDf2mJQ3F-116" style="edgeStyle=orthogonalEdgeStyle;rounded=0;orthogonalLoop=1;jettySize=auto;html=1;" edge="1" parent="1" source="a5aYYJkh6RYxDf2mJQ3F-86">
          <mxGeometry relative="1" as="geometry">
            <mxPoint x="-515" y="200" as="targetPoint" />
            <Array as="points">
              <mxPoint x="-520" y="200" />
            </Array>
          </mxGeometry>
        </mxCell>
        <mxCell id="a5aYYJkh6RYxDf2mJQ3F-86" value="" style="sketch=0;points=[[0,0,0],[0.25,0,0],[0.5,0,0],[0.75,0,0],[1,0,0],[0,1,0],[0.25,1,0],[0.5,1,0],[0.75,1,0],[1,1,0],[0,0.25,0],[0,0.5,0],[0,0.75,0],[1,0.25,0],[1,0.5,0],[1,0.75,0]];outlineConnect=0;fontColor=#232F3E;fillColor=#7AA116;strokeColor=#ffffff;dashed=0;verticalLabelPosition=bottom;verticalAlign=top;align=center;html=1;fontSize=12;fontStyle=0;aspect=fixed;shape=mxgraph.aws4.resourceIcon;resIcon=mxgraph.aws4.s3;" vertex="1" parent="1">
          <mxGeometry x="-550" y="-30.88" width="70.88" height="70.88" as="geometry" />
        </mxCell>
        <mxCell id="a5aYYJkh6RYxDf2mJQ3F-88" style="edgeStyle=orthogonalEdgeStyle;rounded=0;orthogonalLoop=1;jettySize=auto;html=1;entryX=0;entryY=0.5;entryDx=0;entryDy=0;entryPerimeter=0;" edge="1" parent="1" source="a5aYYJkh6RYxDf2mJQ3F-74" target="a5aYYJkh6RYxDf2mJQ3F-85">
          <mxGeometry relative="1" as="geometry" />
        </mxCell>
        <mxCell id="a5aYYJkh6RYxDf2mJQ3F-89" style="edgeStyle=orthogonalEdgeStyle;rounded=0;orthogonalLoop=1;jettySize=auto;html=1;entryX=0;entryY=0.5;entryDx=0;entryDy=0;entryPerimeter=0;" edge="1" parent="1" source="a5aYYJkh6RYxDf2mJQ3F-86" target="a5aYYJkh6RYxDf2mJQ3F-18">
          <mxGeometry relative="1" as="geometry" />
        </mxCell>
        <mxCell id="a5aYYJkh6RYxDf2mJQ3F-98" value="cloudfront-bucket" style="text;html=1;align=center;verticalAlign=middle;resizable=0;points=[];autosize=1;strokeColor=none;fillColor=none;" vertex="1" parent="1">
          <mxGeometry x="84" y="-380" width="120" height="30" as="geometry" />
        </mxCell>
        <mxCell id="a5aYYJkh6RYxDf2mJQ3F-99" value="hyperminds-bucket" style="text;html=1;align=center;verticalAlign=middle;resizable=0;points=[];autosize=1;strokeColor=none;fillColor=none;" vertex="1" parent="1">
          <mxGeometry x="-574.12" y="-60.88" width="120" height="30" as="geometry" />
        </mxCell>
        <mxCell id="a5aYYJkh6RYxDf2mJQ3F-123" value="&lt;font style=&quot;font-size: 18px;&quot;&gt;&lt;b&gt;hyp-minds-dev-vpc&lt;/b&gt;&lt;/font&gt;" style="text;html=1;align=center;verticalAlign=middle;resizable=0;points=[];autosize=1;strokeColor=none;fillColor=none;" vertex="1" parent="1">
          <mxGeometry x="5" y="303" width="190" height="40" as="geometry" />
        </mxCell>
      </root>
    </mxGraphModel>
  </diagram>
</mxfile>
